<svg id="Logo" xmlns="http://www.w3.org/2000/svg" viewBox="0 0 512 384"><defs><style>.cls-1{fill:#ff1919;}</style></defs><title>Artboard 1</title><path id="Logo-2" data-name="Logo" class="cls-1" d="M323.26,175.59c0,9.69-8.18,11.6-15,12.8l-2.11.38V168.46l2.11-.38C315.08,166.88,323.26,165.91,323.26,175.59Zm58.58-57V241.42L130.16,285.8V162.93ZM218.34,223.73c0-10-9.53-15.48-18.21-17.55-8.87-2.12-16.24-3.87-16.24-8.11s3.21-7.39,9.25-8.46c8-1.41,15.77,2.48,15.77,2.48l7.17-15.1s-10-5.43-24.16-2.94c-12.56,2.22-25.39,13.52-25.39,27.73,0,7.93,5.47,14.07,14.82,16.94s17.55,3.92,17.55,9.45c0,7.1-7.36,8.77-11.23,9.45-8.68,1.54-19.07-5.21-19.07-5.21l-8.87,16.14s11,8.11,29.26,4.89C204.19,250.76,218.34,241.9,218.34,223.73Zm61.54-10.85c0-10-9.53-15.48-18.22-17.55-8.87-2.12-16.23-3.87-16.23-8.11s3.21-7.39,9.25-8.46c8-1.41,15.76,2.48,15.76,2.48l7.18-15.1s-10-5.43-24.17-2.94c-12.55,2.22-25.39,13.52-25.39,27.73,0,7.93,5.48,14.07,14.82,16.94s17.56,3.92,17.56,9.45c0,7.1-7.37,8.77-11.23,9.45-8.69,1.53-19.07-5.21-19.07-5.21l-8.87,16.14s11,8.1,29.26,4.89C265.72,239.91,279.88,231.05,279.88,212.88Zm72.47,10.38L325.62,196.5c9.51-4.63,15.91-13.42,15.91-24.87,0-14.95-10.92-20.69-25.32-18.15l-27.77,4.9v76.15l17.7-3.12V201.32l23.72,25.91Zm102.17-36.8,31.43-67-94.28,16.62V259L486,242.36Zm-397,70-31.43,67,94.28-16.63V184L26.05,200.58ZM162.13,96.37c-8.37,1.47-16.93,9-16.93,18.48,0,5.29,3.65,9.38,9.88,11.29s11.7,2.61,11.7,6.3c0,4.74-4.91,5.85-7.49,6.3-5.78,1-12.7-3.47-12.7-3.47L140.67,146s7.36,5.41,19.51,3.27c10.12-1.79,19.56-7.7,19.56-19.81,0-6.64-6.35-10.32-12.14-11.69s-10.82-2.58-10.82-5.41,2.14-4.93,6.16-5.64a19.07,19.07,0,0,1,10.51,1.65l4.78-10.06A26.56,26.56,0,0,0,162.13,96.37ZM197,91.23l-11.79,2.08v50.77L197,142Zm50.57,41.86L259.42,131l-4.66-49.95-12.59,2.22L230.64,114.6,219.12,87.34l-12.59,2.22-4.66,51.59,11.83-2.09,2.49-30.9.45-.08,10.52,27.59,7-1.23,10.52-31.3.45-.08Zm16.28-53.64v50.77l11.8-2.08v-19.3l8.1-1.42c9.53-1.68,17.25-11.51,16.17-21.1-1-8.73-8.12-11.8-17.39-10.17Zm11.8,20.25V86.5l3.27-.57c4.56-.81,8.88-.06,8.88,5.06s-4.32,7.33-8.88,8.14Zm42.28-29.79L306.14,72v50.77l29.49-5.2V107.41l-17.69,3.12ZM371,60.55l-29.49,5.2v50.77l29.49-5.2V101.17l-17.69,3.12V94.13L370,91.19V81l-16.71,3V73.83L371,70.71Z"/></svg>