<svg id="simpleSSR" 
	xmlns="http://www.w3.org/2000/svg" 
	xmlns:xlink="http://www.w3.org/1999/xlink" viewBox="0 0 512 384">
	<defs>
		<style>.cls-1{fill:none;}.cls-2{isolation:isolate;}.cls-3{clip-path:url(#clip-path);}.cls-4{fill:#a00028;}</style>
		<clipPath id="clip-path">
			<polygon class="cls-1" points="48 317.27 48.35 125.14 464 66.73 463.65 258.86 48 317.27"/>
		</clipPath>
	</defs>
	<g id="Logo">
		<g class="cls-2">
			<g class="cls-3">
				<path class="cls-4" d="M303.23,181.52l-1.91.27,0,19.22,1.92-.27c6.17-.87,13.56-2.36,13.58-11.51s-7.37-8.58-13.55-7.71"/>
				<path class="cls-4" d="M285.22,243.59l.13-72,25.1-3.53c13-1.83,22.86,4,22.84,18.18,0,10.83-5.82,18.9-14.41,22.9L343,235.48l-20.34,2.86-21.38-25.46-.05,28.47-16,2.24m-91.05-1.08c3.5-.49,10.15-1.77,10.16-8.5,0-5.23-7.49-6.54-15.84-9.63s-13.37-9.12-13.36-16.62c0-13.45,11.64-23.63,23-25.22a35.4,35.4,0,0,1,21.83,3.73l-6.51,14s-7-4-14.23-3c-5.46.77-8.37,3.71-8.38,7.64s6.65,5.95,14.66,8.32c7.84,2.3,16.44,7.9,16.43,17.32,0,17.2-12.84,25-26.58,26.95-16.46,2.32-26.42-5.8-26.42-5.8l8-14.92s9.37,6.8,17.22,5.7m55.61-7.82c3.5-.49,10.15-1.77,10.17-8.5,0-5.23-7.5-6.53-15.85-9.63s-13.37-9.11-13.36-16.62c0-13.44,11.65-23.62,23-25.22a35.35,35.35,0,0,1,21.82,3.74l-6.5,14s-7-4-14.24-3c-5.46.77-8.36,3.71-8.37,7.63s6.64,6,14.65,8.32c7.84,2.31,16.45,7.9,16.43,17.32,0,17.2-12.84,25-26.57,27-16.46,2.31-26.43-5.81-26.43-5.81l8-14.91s9.36,6.8,17.21,5.69m120-97.1-227.46,32-.21,116.25,227.45-32,.22-116.24"/>
				<polyline class="cls-4" points="463.86 142.62 378.65 154.6 378.43 270.83 463.65 258.86 435.35 204.73 463.86 142.62"/>
				<polyline class="cls-4" points="133.43 189.06 48.21 201.04 76.51 255.16 48 317.27 133.21 305.3 133.43 189.06"/>
				<path class="cls-4" d="M171.34,107.86c-7.57,1.06-15.31,7.85-15.32,16.8,0,5,3.27,9,8.9,11.09s10.56,2.93,10.56,6.42c0,4.48-4.44,5.34-6.77,5.67-5.23.73-11.48-3.8-11.48-3.8L151.87,154s6.64,5.41,17.61,3.87c9.16-1.29,17.7-6.51,17.72-18,0-6.29-5.73-10-10.95-11.55s-9.78-2.87-9.77-5.55,1.94-4.58,5.58-5.09c4.83-.68,9.49,2,9.49,2l4.33-9.34a23.54,23.54,0,0,0-14.54-2.49"/>
				<polyline class="cls-4" points="202.86 104.39 192.2 105.89 192.11 153.92 202.78 152.42 202.86 104.39"/>
				<polyline class="cls-4" points="255.06 97.05 243.68 98.65 233.21 127.83 222.85 101.58 211.47 103.18 207.16 151.8 217.86 150.3 220.16 121.17 220.56 121.11 230.02 147.63 236.32 146.74 245.88 117.55 246.28 117.49 248.48 145.99 259.18 144.49 255.06 97.05"/>
				<path class="cls-4" d="M273.91,115.53l0-12.48,3-.42c4.12-.58,8,.3,8,5.14s-3.91,6.77-8,7.34l-2.95.42m6.25-22L263.29,95.9l-.09,48,10.66-1.5,0-18.25,7.32-1c8.62-1.21,15.61-10.2,14.65-19.31-.88-8.3-7.32-11.49-15.7-10.31"/>
				<polyline class="cls-4" points="312.15 89.03 301.49 90.53 301.4 138.56 328.06 134.81 328.07 125.2 312.08 127.45 312.15 89.03"/>
				<polyline class="cls-4" points="360.13 82.29 333.47 86.03 333.38 134.06 360.04 130.31 360.06 120.71 344.06 122.96 344.08 113.35 359.19 111.23 359.21 101.62 344.1 103.75 344.12 94.14 360.12 91.89 360.13 82.29"/>
			</g>
		</g>
	</g>
</svg>